<svg  xmlns="http://www.w3.org/2000/svg" width="100px" height="100px" viewBox="0 0 68.62745098039215 68.62745098039215">
<linearGradient id="SvgjsLinearGradient4760"><stop id="SvgjsStop4761" stop-color="#8f5e25" offset="0"></stop><stop id="SvgjsStop4762" stop-color="#fbf4a1" offset="0.5"></stop><stop id="SvgjsStop4763" stop-color="#8f5e25" offset="1"></stop></linearGradient>
<g transform="translate(0, -0.0235899990680171) scale(2.144607843137255)" class="css-13rc5e5" fill="url(#SvgjsLinearGradient4760)"><g xmlns="http://www.w3.org/2000/svg" display="none"><rect x="-26.591" y="-65.699" display="inline" fill="{{COLOR}}" width="240.181" height="241.399"></rect></g><g xmlns="http://www.w3.org/2000/svg" display="none"><path display="inline" d="M16,1.425l14.586,14.586L16,30.596L1.414,16.011L16,1.425 M16,0.011l-16,16l16,16l16-16L16,0.011   L16,0.011z"></path><path display="inline" d="M16,9.901l6.11,6.11L16,22.121l-6.11-6.11L16,9.901 M16,8.486l-7.524,7.524L16,23.535l7.524-7.524   L16,8.486L16,8.486z"></path></g><g xmlns="http://www.w3.org/2000/svg" display="none"><g display="inline"><g><rect x="5.186" y="5.197" transform="matrix(0.7071 -0.7071 0.7071 0.7071 -6.635 16.0031)" fill="{{COLOR}}" width="21.628" height="21.628"></rect></g><g><path d="M16,1.425l14.586,14.586L16,30.596L1.414,16.011L16,1.425 M16,0.011l-16,16l16,16l16-16L16,0.011L16,0.011z"></path></g></g><g display="inline"><g><rect x="11.179" y="11.19" transform="matrix(0.7071 -0.7071 0.7071 0.7071 -6.635 16.0031)" fill="{{COLOR}}" width="9.641" height="9.641"></rect></g><g><g><path d="M16,9.901l6.11,6.11L16,22.121l-6.11-6.11L16,9.901 M16,8.486l-7.524,7.524L16,23.535l7.524-7.524L16,8.486L16,8.486z"></path></g></g></g></g><g xmlns="http://www.w3.org/2000/svg" display="none"><g display="inline"><rect x="4.686" y="4.697" transform="matrix(0.7071 -0.7071 0.7071 0.7071 -6.6349 16.0031)" fill="{{COLOR}}" width="22.627" height="22.627"></rect></g><g display="inline"><rect x="10.68" y="10.69" transform="matrix(0.7071 -0.7071 0.7071 0.7071 -6.6349 16.0031)" fill="{{COLOR}}" width="10.641" height="10.641"></rect></g></g><g xmlns="http://www.w3.org/2000/svg"><g><path d="M32,16.011l-16-16l-16,16l16,16L32,16.011z M16,10.709l5.302,5.302L16,21.312l-5.302-5.302L16,10.709z"></path></g></g></g></svg>