<svg xmlns="http://www.w3.org/2000/svg" width="441" height="86.52390829082346" viewBox="0 0 349.7843137254902 68.62745098039215" class="css-1j8o68f"><defs id="SvgjsDefs4755"><linearGradient id="SvgjsLinearGradient4760"><stop id="SvgjsStop4761" stop-color="#8f5e25" offset="0"></stop><stop id="SvgjsStop4762" stop-color="#fbf4a1" offset="0.5"></stop><stop id="SvgjsStop4763" stop-color="#8f5e25" offset="1"></stop></linearGradient><linearGradient id="SvgjsLinearGradient4764"><stop id="SvgjsStop4765" stop-color="#8f5e25" offset="0"></stop><stop id="SvgjsStop4766" stop-color="#fbf4a1" offset="0.5"></stop><stop id="SvgjsStop4767" stop-color="#8f5e25" offset="1"></stop></linearGradient></defs><g id="SvgjsG4756" featurekey="Df7oLJ-0" transform="matrix(2.144607843137255,0,0,2.144607843137255,0,-0.0235899990680171)" fill="url(#SvgjsLinearGradient4760)"><g xmlns="http://www.w3.org/2000/svg" display="none"><rect x="-26.591" y="-65.699" display="inline" fill="url(#SvgjsLinearGradient4760)" width="240.181" height="241.399"></rect></g><g xmlns="http://www.w3.org/2000/svg" display="none"><path display="inline" d="M16,1.425l14.586,14.586L16,30.596L1.414,16.011L16,1.425 M16,0.011l-16,16l16,16l16-16L16,0.011   L16,0.011z"></path><path display="inline" d="M16,9.901l6.11,6.11L16,22.121l-6.11-6.11L16,9.901 M16,8.486l-7.524,7.524L16,23.535l7.524-7.524   L16,8.486L16,8.486z"></path></g><g xmlns="http://www.w3.org/2000/svg" display="none"><g display="inline"><g><rect x="5.186" y="5.197" transform="matrix(0.7071 -0.7071 0.7071 0.7071 -6.635 16.0031)" fill="url(#SvgjsLinearGradient4760)" width="21.628" height="21.628"></rect></g><g><path d="M16,1.425l14.586,14.586L16,30.596L1.414,16.011L16,1.425 M16,0.011l-16,16l16,16l16-16L16,0.011L16,0.011z"></path></g></g><g display="inline"><g><rect x="11.179" y="11.19" transform="matrix(0.7071 -0.7071 0.7071 0.7071 -6.635 16.0031)" fill="url(#SvgjsLinearGradient4760)" width="9.641" height="9.641"></rect></g><g><g><path d="M16,9.901l6.11,6.11L16,22.121l-6.11-6.11L16,9.901 M16,8.486l-7.524,7.524L16,23.535l7.524-7.524L16,8.486L16,8.486z"></path></g></g></g></g><g xmlns="http://www.w3.org/2000/svg" display="none"><g display="inline"><rect x="4.686" y="4.697" transform="matrix(0.7071 -0.7071 0.7071 0.7071 -6.6349 16.0031)" fill="url(#SvgjsLinearGradient4760)" width="22.627" height="22.627"></rect></g><g display="inline"><rect x="10.68" y="10.69" transform="matrix(0.7071 -0.7071 0.7071 0.7071 -6.6349 16.0031)" fill="url(#SvgjsLinearGradient4760)" width="10.641" height="10.641"></rect></g></g><g xmlns="http://www.w3.org/2000/svg"><g><path d="M32,16.011l-16-16l-16,16l16,16L32,16.011z M16,10.709l5.302,5.302L16,21.312l-5.302-5.302L16,10.709z"></path></g></g></g><g id="SvgjsG4757" featurekey="Ua4uQk-0" transform="matrix(6.053490527342602,0,0,6.053490527342602,85.97325329306409,-55.023881229411984)" fill="url(#SvgjsLinearGradient4764)"><path d="M15.44 9.56 l3.14 0 l-3.72 10.44 l-3.04 0 l-2.28 -6.5 l-2.28 6.5 l-3.04 0 l-3.72 -10.44 l3.14 0 l2.14 6.68 l2.38 -6.68 l2.76 0 l2.38 6.68 z M25.26 9.42 c2.36 0 5.48 1.78 5.48 5.42 c0 3.66 -3.12 5.36 -5.48 5.36 s-5.48 -1.7 -5.48 -5.36 c0 -3.64 3.12 -5.42 5.48 -5.42 z M25.26 12.2 c-1.2 0 -2.42 0.92 -2.42 2.64 c0 1.66 1.22 2.58 2.42 2.58 s2.44 -0.92 2.44 -2.58 c0 -1.72 -1.24 -2.64 -2.44 -2.64 z M39.96 20 l-2.16 -3.04 l-2.14 3.04 l-3.62 0 l3.94 -5.34 l-3.54 -5.06 l3.58 0 l1.78 2.78 l1.8 -2.78 l3.58 0 l-3.56 5.06 l3.96 5.34 l-3.62 0 z"></path></g></svg>